<mxfile host="app.diagrams.net" modified="2023-10-16T00:48:20.291Z" agent="Mozilla/5.0 (Windows NT 10.0; Win64; x64; rv:109.0) Gecko/20100101 Firefox/118.0" etag="KVgfyULdhjQPNUKCA3iU" version="22.0.4" type="github">
  <diagram id="C5RBs43oDa-KdzZeNtuy" name="Page-1">
    <mxGraphModel dx="1035" dy="553" grid="1" gridSize="10" guides="1" tooltips="1" connect="1" arrows="1" fold="1" page="1" pageScale="1" pageWidth="827" pageHeight="1169" math="0" shadow="0">
      <root>
        <mxCell id="WIyWlLk6GJQsqaUBKTNV-0" />
        <mxCell id="WIyWlLk6GJQsqaUBKTNV-1" parent="WIyWlLk6GJQsqaUBKTNV-0" />
        <mxCell id="tYLwhxoc6iLgDNqH37N0-3" style="edgeStyle=orthogonalEdgeStyle;rounded=0;orthogonalLoop=1;jettySize=auto;html=1;exitX=0.5;exitY=1;exitDx=0;exitDy=0;exitPerimeter=0;entryX=0.5;entryY=0;entryDx=0;entryDy=0;" edge="1" parent="WIyWlLk6GJQsqaUBKTNV-1" source="tYLwhxoc6iLgDNqH37N0-0" target="tYLwhxoc6iLgDNqH37N0-1">
          <mxGeometry relative="1" as="geometry" />
        </mxCell>
        <mxCell id="tYLwhxoc6iLgDNqH37N0-0" value="mulai" style="strokeWidth=2;html=1;shape=mxgraph.flowchart.start_1;whiteSpace=wrap;" vertex="1" parent="WIyWlLk6GJQsqaUBKTNV-1">
          <mxGeometry x="340" y="130" width="100" height="70" as="geometry" />
        </mxCell>
        <mxCell id="tYLwhxoc6iLgDNqH37N0-5" value="" style="edgeStyle=orthogonalEdgeStyle;rounded=0;orthogonalLoop=1;jettySize=auto;html=1;" edge="1" parent="WIyWlLk6GJQsqaUBKTNV-1" source="tYLwhxoc6iLgDNqH37N0-1" target="tYLwhxoc6iLgDNqH37N0-4">
          <mxGeometry relative="1" as="geometry" />
        </mxCell>
        <mxCell id="tYLwhxoc6iLgDNqH37N0-1" value="Integer bil" style="shape=internalStorage;whiteSpace=wrap;html=1;dx=15;dy=15;rounded=1;arcSize=8;strokeWidth=2;" vertex="1" parent="WIyWlLk6GJQsqaUBKTNV-1">
          <mxGeometry x="310" y="250" width="160" height="70" as="geometry" />
        </mxCell>
        <mxCell id="tYLwhxoc6iLgDNqH37N0-4" value="input bil" style="shape=parallelogram;perimeter=parallelogramPerimeter;whiteSpace=wrap;html=1;fixedSize=1;rounded=1;arcSize=8;strokeWidth=2;" vertex="1" parent="WIyWlLk6GJQsqaUBKTNV-1">
          <mxGeometry x="330" y="380" width="120" height="60" as="geometry" />
        </mxCell>
        <mxCell id="tYLwhxoc6iLgDNqH37N0-30" value="True" style="edgeStyle=orthogonalEdgeStyle;rounded=0;orthogonalLoop=1;jettySize=auto;html=1;exitX=1;exitY=0.5;exitDx=0;exitDy=0;exitPerimeter=0;entryX=0.5;entryY=0;entryDx=0;entryDy=0;" edge="1" parent="WIyWlLk6GJQsqaUBKTNV-1" source="tYLwhxoc6iLgDNqH37N0-8" target="tYLwhxoc6iLgDNqH37N0-10">
          <mxGeometry relative="1" as="geometry" />
        </mxCell>
        <mxCell id="tYLwhxoc6iLgDNqH37N0-31" value="False" style="edgeStyle=orthogonalEdgeStyle;rounded=0;orthogonalLoop=1;jettySize=auto;html=1;exitX=0;exitY=0.5;exitDx=0;exitDy=0;exitPerimeter=0;entryX=0.5;entryY=0;entryDx=0;entryDy=0;" edge="1" parent="WIyWlLk6GJQsqaUBKTNV-1" source="tYLwhxoc6iLgDNqH37N0-8" target="tYLwhxoc6iLgDNqH37N0-12">
          <mxGeometry relative="1" as="geometry" />
        </mxCell>
        <mxCell id="tYLwhxoc6iLgDNqH37N0-8" value="Bil mod 2=0" style="strokeWidth=2;html=1;shape=mxgraph.flowchart.decision;whiteSpace=wrap;" vertex="1" parent="WIyWlLk6GJQsqaUBKTNV-1">
          <mxGeometry x="340" y="485" width="100" height="100" as="geometry" />
        </mxCell>
        <mxCell id="tYLwhxoc6iLgDNqH37N0-9" style="edgeStyle=orthogonalEdgeStyle;rounded=0;orthogonalLoop=1;jettySize=auto;html=1;exitX=0.5;exitY=1;exitDx=0;exitDy=0;entryX=0.5;entryY=0;entryDx=0;entryDy=0;entryPerimeter=0;" edge="1" parent="WIyWlLk6GJQsqaUBKTNV-1" source="tYLwhxoc6iLgDNqH37N0-4" target="tYLwhxoc6iLgDNqH37N0-8">
          <mxGeometry relative="1" as="geometry" />
        </mxCell>
        <mxCell id="tYLwhxoc6iLgDNqH37N0-10" value="Output bilangan genap" style="shape=parallelogram;perimeter=parallelogramPerimeter;whiteSpace=wrap;html=1;fixedSize=1;strokeWidth=2;" vertex="1" parent="WIyWlLk6GJQsqaUBKTNV-1">
          <mxGeometry x="550" y="570" width="120" height="60" as="geometry" />
        </mxCell>
        <mxCell id="tYLwhxoc6iLgDNqH37N0-12" value="Output bilangan ganjil" style="shape=parallelogram;perimeter=parallelogramPerimeter;whiteSpace=wrap;html=1;fixedSize=1;strokeWidth=2;" vertex="1" parent="WIyWlLk6GJQsqaUBKTNV-1">
          <mxGeometry x="140" y="570" width="120" height="60" as="geometry" />
        </mxCell>
        <mxCell id="tYLwhxoc6iLgDNqH37N0-14" value="Selesai" style="strokeWidth=2;html=1;shape=mxgraph.flowchart.start_1;whiteSpace=wrap;" vertex="1" parent="WIyWlLk6GJQsqaUBKTNV-1">
          <mxGeometry x="340" y="710" width="100" height="60" as="geometry" />
        </mxCell>
        <mxCell id="tYLwhxoc6iLgDNqH37N0-19" value="" style="strokeWidth=2;html=1;shape=mxgraph.flowchart.start_2;whiteSpace=wrap;" vertex="1" parent="WIyWlLk6GJQsqaUBKTNV-1">
          <mxGeometry x="380" y="670" width="20" height="20" as="geometry" />
        </mxCell>
        <mxCell id="tYLwhxoc6iLgDNqH37N0-24" style="edgeStyle=orthogonalEdgeStyle;rounded=0;orthogonalLoop=1;jettySize=auto;html=1;exitX=0.5;exitY=1;exitDx=0;exitDy=0;entryX=1;entryY=0.5;entryDx=0;entryDy=0;entryPerimeter=0;" edge="1" parent="WIyWlLk6GJQsqaUBKTNV-1" source="tYLwhxoc6iLgDNqH37N0-10" target="tYLwhxoc6iLgDNqH37N0-19">
          <mxGeometry relative="1" as="geometry" />
        </mxCell>
        <mxCell id="tYLwhxoc6iLgDNqH37N0-25" style="edgeStyle=orthogonalEdgeStyle;rounded=0;orthogonalLoop=1;jettySize=auto;html=1;exitX=0.5;exitY=1;exitDx=0;exitDy=0;entryX=0;entryY=0.5;entryDx=0;entryDy=0;entryPerimeter=0;" edge="1" parent="WIyWlLk6GJQsqaUBKTNV-1" source="tYLwhxoc6iLgDNqH37N0-12" target="tYLwhxoc6iLgDNqH37N0-19">
          <mxGeometry relative="1" as="geometry" />
        </mxCell>
        <mxCell id="tYLwhxoc6iLgDNqH37N0-26" style="edgeStyle=orthogonalEdgeStyle;rounded=0;orthogonalLoop=1;jettySize=auto;html=1;exitX=0.5;exitY=1;exitDx=0;exitDy=0;exitPerimeter=0;entryX=0.5;entryY=0;entryDx=0;entryDy=0;entryPerimeter=0;" edge="1" parent="WIyWlLk6GJQsqaUBKTNV-1" source="tYLwhxoc6iLgDNqH37N0-19" target="tYLwhxoc6iLgDNqH37N0-14">
          <mxGeometry relative="1" as="geometry" />
        </mxCell>
      </root>
    </mxGraphModel>
  </diagram>
</mxfile>
